<svg id="visual" viewBox="0 0 900 450" width="900" height="450" xmlns="http://www.w3.org/2000/svg" xmlns:xlink="http://www.w3.org/1999/xlink" version="1.1"><rect x="0" y="0" width="900" height="450" fill="#304ee8"></rect><g transform="translate(870.9265157806362 419.4869069841707)"><path d="M134.8 -220.4C172 -185.9 197.4 -143.8 243.3 -95.7C289.1 -47.6 355.4 6.5 357.3 57.3C359.2 108.1 296.7 155.5 247.6 217.4C198.4 279.3 162.6 355.5 108.9 371.6C55.2 387.6 -16.3 343.5 -65.8 296.1C-115.3 248.7 -142.7 198 -181.6 155.8C-220.6 113.7 -271.1 80 -290 33.9C-308.8 -12.2 -295.8 -70.7 -277.6 -133.5C-259.4 -196.3 -235.9 -263.5 -188.8 -293.4C-141.6 -323.4 -70.8 -316.2 -11 -299.1C48.8 -282 97.7 -255 134.8 -220.4" fill="#3252f3"></path></g></svg>