<svg xmlns="http://www.w3.org/2000/svg" version="1.1" xmlns:xlink="http://www.w3.org/1999/xlink" xmlns:svgjs="http://svgjs.dev/svgjs" viewBox="0 0 800 800" opacity="1"><defs><linearGradient x1="50%" y1="0%" x2="50%" y2="100%" id="cccoil-grad"><stop stop-color="hsl(240, 57%, 3%)" stop-opacity="1" offset="0%"></stop><stop stop-color="hsl(312, 44%, 45%)" stop-opacity="1" offset="100%"></stop></linearGradient></defs><g stroke="url(#cccoil-grad)" fill="none" stroke-linecap="round"><circle r="294" cx="400" cy="400" stroke-width="7.5" stroke-dasharray="1736 1847" transform="rotate(360, 400, 400)" opacity="0.05"></circle><circle r="280" cx="400" cy="400" stroke-width="7.5" stroke-dasharray="1571 1759" transform="rotate(342, 400, 400)" opacity="0.10"></circle><circle r="266" cx="400" cy="400" stroke-width="7.5" stroke-dasharray="1414 1671" transform="rotate(324, 400, 400)" opacity="0.15"></circle><circle r="252" cx="400" cy="400" stroke-width="7.5" stroke-dasharray="1265 1583" transform="rotate(306, 400, 400)" opacity="0.19"></circle><circle r="238" cx="400" cy="400" stroke-width="7.5" stroke-dasharray="1125 1495" transform="rotate(288, 400, 400)" opacity="0.24"></circle><circle r="224" cx="400" cy="400" stroke-width="7.5" stroke-dasharray="992 1407" transform="rotate(270, 400, 400)" opacity="0.29"></circle><circle r="210" cx="400" cy="400" stroke-width="7.5" stroke-dasharray="868 1319" transform="rotate(252, 400, 400)" opacity="0.33"></circle><circle r="196" cx="400" cy="400" stroke-width="7.5" stroke-dasharray="752 1232" transform="rotate(234, 400, 400)" opacity="0.38"></circle><circle r="182" cx="400" cy="400" stroke-width="7.5" stroke-dasharray="645 1144" transform="rotate(216, 400, 400)" opacity="0.43"></circle><circle r="168" cx="400" cy="400" stroke-width="7.5" stroke-dasharray="546 1056" transform="rotate(198, 400, 400)" opacity="0.48"></circle><circle r="154" cx="400" cy="400" stroke-width="7.5" stroke-dasharray="455 968" transform="rotate(180, 400, 400)" opacity="0.53"></circle><circle r="140" cx="400" cy="400" stroke-width="7.5" stroke-dasharray="372 880" transform="rotate(162, 400, 400)" opacity="0.57"></circle><circle r="126" cx="400" cy="400" stroke-width="7.5" stroke-dasharray="298 792" transform="rotate(144, 400, 400)" opacity="0.62"></circle><circle r="112" cx="400" cy="400" stroke-width="7.5" stroke-dasharray="232 704" transform="rotate(126, 400, 400)" opacity="0.67"></circle><circle r="98" cx="400" cy="400" stroke-width="7.5" stroke-dasharray="174 616" transform="rotate(108, 400, 400)" opacity="0.71"></circle><circle r="84" cx="400" cy="400" stroke-width="7.5" stroke-dasharray="124 528" transform="rotate(90, 400, 400)" opacity="0.76"></circle><circle r="70" cx="400" cy="400" stroke-width="7.5" stroke-dasharray="83 440" transform="rotate(72, 400, 400)" opacity="0.81"></circle><circle r="56" cx="400" cy="400" stroke-width="7.5" stroke-dasharray="50 352" transform="rotate(54, 400, 400)" opacity="0.86"></circle><circle r="42" cx="400" cy="400" stroke-width="7.5" stroke-dasharray="25 264" transform="rotate(36, 400, 400)" opacity="0.91"></circle><circle r="28" cx="400" cy="400" stroke-width="7.5" stroke-dasharray="8 176" transform="rotate(18, 400, 400)" opacity="0.95"></circle><circle r="14" cx="400" cy="400" stroke-width="7.5" stroke-dasharray="0 88" opacity="1.00"></circle></g></svg>