<?xml version="1.0" encoding="iso-8859-1"?>
<!-- Generator: Adobe Illustrator 19.0.0, SVG Export Plug-In . SVG Version: 6.00 Build 0)  -->
<svg version="1.1" id="Layer_1" xmlns="http://www.w3.org/2000/svg" xmlns:xlink="http://www.w3.org/1999/xlink" x="0px" y="0px"
	 viewBox="0 0 512 512" style="enable-background:new 0 0 512 512;" xml:space="preserve">
<g>
	<g>
		<path d="M216.905,84.454c3.152-7.406,4.785-15.432,4.785-23.753C221.691,27.23,194.461,0,160.99,0s-60.701,27.23-60.701,60.701
			c0,8.321,1.633,16.347,4.785,23.753H21.113V512h469.773V84.454H216.905z M160.99,15.835c24.74,0,44.866,20.126,44.866,44.866
			c0,9.877-3.093,19.173-8.973,26.92c-3.759,5.011-8.652,9.255-14.232,12.315c-6.539,3.683-14.03,5.631-21.661,5.631
			c-7.631,0-15.122-1.948-21.739-5.674c-5.5-3.017-10.394-7.26-14.153-12.272l-0.027-0.037c-5.853-7.71-8.946-17.006-8.946-26.883
			C116.124,35.961,136.25,15.835,160.99,15.835z M276.53,216.412H76.536c-1.43,0-2.639-1.209-2.639-2.639v-42.227
			c0-1.43,1.209-2.639,2.639-2.639h50.144v15.835h-18.474v15.835h105.567v-15.835h-18.474v-15.835h76.791
			c-1.904,5.93-2.894,12.169-2.894,18.474C269.196,197.688,271.744,207.602,276.53,216.412z M142.515,184.742v-66.234
			c5.93,1.904,12.169,2.894,18.474,2.894c6.312,0,12.557-0.991,18.474-2.889v66.23H142.515z M475.052,496.165H36.948V448.66h438.103
			V496.165z M475.052,432.825H36.948V100.289h78.053c3.424,3.963,7.374,7.492,11.679,10.433v42.35H76.536
			c-10.186,0-18.474,8.288-18.474,18.474v42.227c0,10.186,8.288,18.474,18.474,18.474h212.425c2.109,1.898,4.325,3.642,6.626,5.212
			v63.407H76.536c-10.186,0-18.474,8.288-18.474,18.474v42.227c0,10.186,8.288,18.474,18.474,18.474h358.928
			c10.186,0,18.474-8.288,18.474-18.474V319.34c0-10.186-8.288-18.474-18.474-18.474h-71.258v-63.429
			c2.872-1.967,5.523-4.127,7.918-6.46v1.27h63.34c10.186,0,18.474-8.288,18.474-18.474v-42.227
			c0-10.186-8.288-18.474-18.474-18.474h-55.548c-11.224-16.409-29.898-26.392-50.019-26.392c-20.138,0-38.829,10.001-50.023,26.392
			h-84.575v-42.354c4.326-2.957,8.273-6.484,11.681-10.429h268.072V432.825z M382.68,348.371v-15.835h-18.474v-15.835h71.258
			c1.43,0,2.639,1.209,2.639,2.639v42.227c0,1.43-1.209,2.639-2.639,2.639H76.536c-1.43,0-2.639-1.209-2.639-2.639V319.34
			c0-1.43,1.209-2.639,2.639-2.639h219.052v15.835h-18.474v15.835H382.68z M311.423,332.536v-87.308
			c5.901,1.878,12.134,2.854,18.474,2.854c6.342,0,12.577-0.978,18.474-2.852v87.306H311.423z M363.569,216.972
			c-3.054,3.578-6.846,6.7-11.299,9.298c-6.638,3.91-14.374,5.977-22.373,5.977c-7.999,0-15.735-2.067-22.446-6.019
			c-3.518-2.023-6.796-4.545-9.687-7.434c-8.211-8.398-12.734-19.554-12.734-31.413c0-7.631,1.948-15.122,5.665-21.721
			c7.88-14.276,22.901-23.145,39.201-23.145s31.322,8.869,39.201,23.145l0.034,0.06c3.683,6.539,5.631,14.03,5.631,21.661
			C374.763,198.213,370.809,208.695,363.569,216.972z M387.704,168.907h47.76c1.43,0,2.639,1.209,2.639,2.639v42.227
			c0,1.43-1.209,2.639-2.639,2.639h-52.301c4.842-8.858,7.435-18.827,7.435-29.031C390.598,181.076,389.608,174.837,387.704,168.907
			z"/>
	</g>
</g>
<g>
	<g>
		<rect x="108.206" y="464.495" width="295.588" height="15.835"/>
	</g>
</g>
<g>
	<g>
		<rect x="419.629" y="464.495" width="21.113" height="15.835"/>
	</g>
</g>
<g>
	<g>
		<rect x="71.258" y="464.495" width="21.113" height="15.835"/>
	</g>
</g>
<g>
	<g>
		<path d="M160.99,31.67c-16.008,0-29.031,13.023-29.031,29.031s13.023,29.031,29.031,29.031V73.897
			c-7.277,0-13.196-5.919-13.196-13.196s5.919-13.196,13.196-13.196s13.196,5.919,13.196,13.196h15.835
			C190.021,44.693,176.998,31.67,160.99,31.67z"/>
	</g>
</g>
<g>
	<g>
		<path d="M329.897,158.351c-16.008,0-29.031,13.023-29.031,29.031s13.023,29.031,29.031,29.031v-15.835
			c-7.277,0-13.196-5.919-13.196-13.196s5.919-13.196,13.196-13.196s13.196,5.919,13.196,13.196h15.835
			C358.928,171.373,345.905,158.351,329.897,158.351z"/>
	</g>
</g>
<g>
	<g>
		<rect x="50.144" y="116.124" width="21.113" height="15.835"/>
	</g>
</g>
<g>
	<g>
		<rect x="440.742" y="116.124" width="21.113" height="15.835"/>
	</g>
</g>
<g>
	<g>
		<rect x="50.144" y="401.155" width="21.113" height="15.835"/>
	</g>
</g>
<g>
	<g>
		<rect x="440.742" y="401.155" width="21.113" height="15.835"/>
	</g>
</g>
<g>
</g>
<g>
</g>
<g>
</g>
<g>
</g>
<g>
</g>
<g>
</g>
<g>
</g>
<g>
</g>
<g>
</g>
<g>
</g>
<g>
</g>
<g>
</g>
<g>
</g>
<g>
</g>
<g>
</g>
</svg>
