<?xml version="1.0" ?><svg viewBox="0 0 64 64" xmlns="http://www.w3.org/2000/svg"><defs><style>.cls-1{fill:#dbe4eb;}.cls-2{fill:#544f56;}.cls-3{fill:#f6e782;}.cls-4{fill:#655e66;}</style></defs><g id="Anglerfish"><path class="cls-1" d="M52.38,37a1,1,0,0,0-.86,1.12L52,41.33a1,1,0,0,0,1.12.86,1,1,0,0,0,.86-1.12l-.43-3.23A1,1,0,0,0,52.38,37Z" id="path52463"/><path class="cls-1" d="M48.74,37a1,1,0,0,0-.86,1.12l.43,3.23a1,1,0,0,0,2-.26l-.43-3.23A1,1,0,0,0,48.74,37Z" id="path52545"/><path class="cls-1" d="M44.73,37a1,1,0,0,0-.86,1.12l.43,3.23a1,1,0,1,0,2-.26l-.43-3.23A1,1,0,0,0,44.73,37Z" id="path52699"/><path class="cls-1" d="M45.55,23.6a1,1,0,0,0-.54.55,1,1,0,0,0,.54,1.3l2.35,1a1,1,0,0,0,1.31-.54h0a1,1,0,0,0-.54-1.31l-2.36-1A1,1,0,0,0,45.55,23.6Z" id="path52701"/><path class="cls-1" d="M45.31,26.93a1,1,0,1,0-.76,1.84l2.33,1a1,1,0,0,0,1.31-.54h0a1,1,0,0,0-.54-1.3Z" id="path52703"/><path class="cls-1" d="M44.26,30.42A1,1,0,0,0,43,31h0a1,1,0,0,0,.55,1.31l2.22.92a1,1,0,0,0,1.3-.54h0a1,1,0,0,0-.54-1.31h0Z" id="path52705"/><path class="cls-1" d="M43.31,33.57a1,1,0,1,0-.76,1.85h0l1.86.77a1,1,0,1,0,.76-1.85h0Z" id="path53215"/><path class="cls-2" d="M47,11.73A7.22,7.22,0,0,0,39.77,19v2.28a1,1,0,0,0,2,0V19a5.23,5.23,0,0,1,10.45,0V23a1,1,0,0,0,2,0V19A7.23,7.23,0,0,0,47,11.73Z" id="rect51195"/><path class="cls-3" d="M21.38,27.17a3.83,3.83,0,0,1,.68-6,31.87,31.87,0,0,1,3.27-1.6,38.57,38.57,0,0,1,5.93-2,3.93,3.93,0,0,1,4.83,3.82L30.42,27.8Z" id="path48907-3"/><path class="cls-4" d="M13.61,27.58a8.77,8.77,0,0,1,4.17,2.16c1.9-3,5.23-5.25,9-6.85a33.75,33.75,0,0,1,12.53-2.73,15.94,15.94,0,0,1,7.59,1.91,1,1,0,0,1,.49,1.17l-5.12,17H53.5a1,1,0,0,1,.94,1.33A16.08,16.08,0,0,1,39.29,52.28c-3.86,0-8.54-1.61-12.73-4.1a24,24,0,0,1-8.9-8.61,9.05,9.05,0,0,1-3.74,2,2.5,2.5,0,0,1-2.47-1.49s-2-5.39-2-6.59S11.15,28.3,13.61,27.58Z" id="path47544-5"/><path class="cls-2" d="M33.62,35.79c0,2.22-3.66,4-5.88,4a4,4,0,0,1,0-8C30,31.78,33.62,33.58,33.62,35.79Z" id="path50432-5"/><path class="cls-3" d="M53.22,22a3,3,0,1,0,3,3A3,3,0,0,0,53.22,22Z" id="path472235"/><path class="cls-1" d="M40.58,27.59a2.27,2.27,0,1,1-2.27-2.26A2.27,2.27,0,0,1,40.58,27.59Z" id="path52306-2"/><path class="cls-3" d="M12.73,27.51a4.43,4.43,0,0,0-4.12,2.33,10.46,10.46,0,0,0-.8,4.76,10.52,10.52,0,0,0,.8,4.77,4.44,4.44,0,0,0,4.12,2.33,5.23,5.23,0,0,0,1.19-.14c-1.49-1.55-1.83-4.18-1.83-7.16,0-2.77.29-5.23,1.52-6.82A6.4,6.4,0,0,0,12.73,27.51Z" id="path54496-9"/><path class="cls-2" d="M39.69,33.93a1,1,0,0,0-1.24.67h0L36.83,40h0a4.28,4.28,0,0,0,4.08,5.49,1,1,0,0,0,0-2,2.24,2.24,0,0,1-2.17-2.91l1.62-5.37a1,1,0,0,0-.67-1.25Z" id="path54033"/></g></svg>