<?xml version="1.0" ?><svg viewBox="0 0 64 64" xmlns="http://www.w3.org/2000/svg"><g id="Anglerfish"><path d="M26.6,31.78a5.15,5.15,0,0,0,0,10.3c2.78,0,7.08-2.21,7.08-5.15S29.38,31.78,26.6,31.78Zm0,8.3a3.15,3.15,0,1,1,0-6.3c2,0,5.08,1.69,5.08,3.15S28.6,40.08,26.6,40.08Z"/><path d="M54,22.85V19.47a7.45,7.45,0,1,0-14.89,0V20.8c-.18,0-.35,0-.53,0a24.13,24.13,0,0,0-2.48.13,5.24,5.24,0,0,0-2-3,4.8,4.8,0,0,0-4.11-.8,42.08,42.08,0,0,0-6.28,2.1,34.13,34.13,0,0,0-3.48,1.72,4.63,4.63,0,0,0-2.35,3.36,5.27,5.27,0,0,0,.78,3.59,14.31,14.31,0,0,0-2.37,2.71,8.49,8.49,0,0,0-5.23-2.16C6,28.38,6,33.51,6,35.7S6,43,11.06,43A8.86,8.86,0,0,0,16.16,41c4,7.13,15.2,13,22.38,13A16.62,16.62,0,0,0,54.19,42.87a.89.89,0,0,0,0-.47l-.44-3.35a1,1,0,0,0-1.12-.86,1,1,0,0,0-.86,1.13l.29,2.22H50.35L50,39.05a1,1,0,1,0-2,.27l.29,2.22H46.2l-.33-2.49a1,1,0,1,0-2,.27l.29,2.22H41.56L43,36.94l.9.37a1.09,1.09,0,0,0,.39.08,1,1,0,0,0,.38-1.93L43.53,35l.4-1.34,1.28.53a1,1,0,0,0,.38.07A1,1,0,0,0,46,32.35l-1.46-.61L45,30l1.39.58a1.08,1.08,0,0,0,.38.08,1,1,0,0,0,.39-1.93l-1.58-.65.46-1.52,1.41.58a.84.84,0,0,0,.38.08,1,1,0,0,0,.38-1.92l-1.6-.67.24-.76a1,1,0,0,0-.49-1.17A16.53,16.53,0,0,0,41.07,21V19.47a5.45,5.45,0,1,1,10.89,0v3.38a3,3,0,1,0,2,0Zm-34.1,1.7a2.65,2.65,0,0,1,1.35-1.93A31.26,31.26,0,0,1,24.49,21a41.15,41.15,0,0,1,6-2,2.88,2.88,0,0,1,2.44.46,3.17,3.17,0,0,1,1.15,1.7,33.47,33.47,0,0,0-13.83,5.4A3.25,3.25,0,0,1,19.86,24.55ZM8,35.7c0-3.94.88-5.07,2.43-5.28a12.71,12.71,0,0,0-.81,5.11,11.81,11.81,0,0,0,1,5.46C9,40.84,8,39.78,8,35.7Zm31.26,6.55a1,1,0,0,0,.15.88,1,1,0,0,0,.81.41H51.76A14.61,14.61,0,0,1,38.54,52c-6.85,0-18.19-6.14-21.15-13a1,1,0,0,0-.74-.59l-.18,0a1,1,0,0,0-.72.31,8.48,8.48,0,0,1-3,2c-.8-.85-1.14-2.43-1.14-5.11,0-1.69.12-3.7.94-4.85a8.28,8.28,0,0,1,3.24,2.14,1,1,0,0,0,1.62-.24c3-6.14,14.26-9.81,21.12-9.81a14.72,14.72,0,0,1,6.17,1.36ZM53,26.77a1.05,1.05,0,1,1,1-1.05A1,1,0,0,1,53,26.77Z"/><path d="M34.19,28.43a3.34,3.34,0,1,0,3.34-3.35A3.35,3.35,0,0,0,34.19,28.43Zm4.68,0a1.34,1.34,0,1,1-1.34-1.35A1.35,1.35,0,0,1,38.87,28.43Z"/><path d="M39,35a1,1,0,0,0-1.25.67L36,41.27a4.39,4.39,0,0,0,4.19,5.65h0a1,1,0,0,0,0-2,2.38,2.38,0,0,1-2.28-3.07l1.68-5.57A1,1,0,0,0,39,35Z"/></g></svg>