<svg width="610" height="1024" viewBox="0 0 610 1024" fill="none" xmlns="http://www.w3.org/2000/svg">
<g opacity="0.05">
<mask id="mask0" mask-type="alpha" maskUnits="userSpaceOnUse" x="-113" y="-53" width="723" height="1077">
<rect x="-113" y="-53" width="723" height="1077" fill="#001236"/>
</mask>
<g mask="url(#mask0)">
<path d="M-67.4632 816.716C-126.774 850.959 -202.625 830.786 -236.741 771.696C-270.857 712.606 -250.063 637.415 -191.34 603.511C-132.616 569.607 -56.765 589.78 -22.987 648.285C10.7909 706.79 -8.15229 782.473 -67.4632 816.716ZM198.762 -2.3876C119.485 43.3829 154.469 112.113 33.4979 181.955C-88.6473 252.476 -137.137 191.544 -209.367 233.246C-268.678 267.489 -288.546 342.926 -254.768 401.431C-220.99 459.936 -145.139 480.109 -86.4155 446.204C-6.55135 400.095 -41.5348 331.365 79.4359 261.522C201.581 191.002 250.071 251.934 322.301 210.232C381.612 175.989 401.48 100.552 367.702 42.0472C333.924 -16.4579 258.073 -36.6308 198.762 -2.3876ZM528.097 568.037C448.233 614.147 483.216 682.877 362.246 752.719C240.1 823.24 191.611 762.308 119.381 804.01C60.0697 838.253 40.2015 913.689 73.9794 972.195C107.757 1030.7 183.609 1050.87 242.332 1016.97C322.196 970.859 287.213 902.129 408.184 832.286C530.329 761.766 578.819 822.698 651.049 780.996C710.36 746.753 730.228 671.316 696.45 612.811C662.672 554.306 587.408 533.794 528.097 568.037ZM522.152 191.576C441.701 238.025 485.17 306.536 384.166 364.851C290.795 418.758 249.425 349.815 159.578 401.689C103.79 433.898 87.3728 511.242 119.462 566.822C151.551 622.402 227.329 646.517 287.815 611.596C368.266 565.147 324.796 496.636 425.801 438.321C519.172 384.414 560.542 453.357 650.389 401.484C706.176 369.275 722.594 291.93 690.505 236.35C659.003 180.431 583.225 156.316 522.152 191.576Z" fill="black"/>
</g>
</g>
</svg>
