<?xml version="1.0" ?><svg height="64" id="svg8" version="1.1" viewBox="0 0 16.933333 16.933333" width="64" xmlns="http://www.w3.org/2000/svg" xmlns:cc="http://creativecommons.org/ns#" xmlns:dc="http://purl.org/dc/elements/1.1/" xmlns:inkscape="http://www.inkscape.org/namespaces/inkscape" xmlns:rdf="http://www.w3.org/1999/02/22-rdf-syntax-ns#" xmlns:sodipodi="http://sodipodi.sourceforge.net/DTD/sodipodi-0.dtd" xmlns:svg="http://www.w3.org/2000/svg"><defs id="defs2"/><g id="layer1"/><g id="g890" style="display:inline"><path d="M 32.148438 2.2519531 C 29.420916 2.2519531 26.700879 2.3084607 24.632812 2.4355469 C 23.598779 2.4990899 22.733791 2.5842012 22.080078 2.6875 C 21.753222 2.7391494 21.485943 2.7883016 21.222656 2.8789062 C 21.091013 2.9242085 20.96087 2.9697489 20.787109 3.09375 C 20.613349 3.217751 20.300781 3.5186762 20.300781 4.0019531 L 20.300781 6.9980469 L 19.068359 6.9980469 A 1.0001007 1.0001007 0 0 0 18.070312 8.0019531 L 18.070312 15 L 18.070312 15.996094 L 18.070312 36.998047 L 21 36.998047 L 21 41.214844 L 22.001953 42.253906 L 22.001953 60.996094 L 24.001953 60.996094 L 24.001953 42.25 L 25 41.214844 L 25 36.998047 L 30 36.998047 L 30 41.214844 L 31.001953 42.253906 L 31.001953 60.996094 L 33.001953 60.996094 L 33.001953 42.25 L 34 41.214844 L 34 36.998047 L 39 36.998047 L 39 41.214844 L 40.001953 42.253906 L 40.001953 60.996094 L 42.001953 60.996094 L 42.001953 42.25 L 43 41.214844 L 43 36.998047 L 45.929688 36.998047 L 45.929688 15.996094 L 45.929688 15 L 45.929688 8.0019531 A 1.0001007 1.0001007 0 0 0 44.933594 6.9980469 L 44.003906 6.9980469 L 44.003906 4.0019531 C 44.003906 3.5186762 43.689385 3.217751 43.515625 3.09375 C 43.341865 2.9697489 43.211719 2.9242085 43.080078 2.8789062 C 42.816789 2.7883016 42.551467 2.7391494 42.224609 2.6875 C 41.570895 2.5842012 40.703955 2.4990899 39.669922 2.4355469 C 37.601855 2.3084607 34.875959 2.2519531 32.148438 2.2519531 z M 32.148438 4.2519531 C 34.845233 4.2519531 37.544749 4.3126332 39.544922 4.4355469 C 40.545008 4.4970039 41.381206 4.5740017 41.914062 4.6582031 C 41.960071 4.665473 41.96235 4.6721825 42.003906 4.6796875 L 42.003906 8.0019531 A 1.0001007 1.0001007 0 0 0 43 8.9980469 L 43.929688 8.9980469 L 43.929688 15 L 20.072266 15 L 20.072266 8.9980469 L 21.304688 8.9980469 A 1.0001007 1.0001007 0 0 0 22.300781 8.0019531 L 22.300781 4.6796875 C 22.342339 4.6721825 22.342664 4.665473 22.388672 4.6582031 C 22.921528 4.5740017 23.751867 4.4970039 24.751953 4.4355469 C 26.752125 4.3126332 29.451642 4.2519531 32.148438 4.2519531 z M 32 5.8085938 C 29.871919 5.8085938 28.125 7.5574661 28.125 9.6855469 C 28.125 11.813628 29.871919 13.560547 32 13.560547 C 34.12808 13.560547 35.876953 11.813628 35.876953 9.6855469 C 35.876953 7.5574661 34.12808 5.8085938 32 5.8085938 z M 32 7.8105469 C 33.0472 7.8105473 33.875 8.6383471 33.875 9.6855469 C 33.875 10.732747 33.0472 11.560546 32 11.560547 C 30.9528 11.560546 30.125 10.732747 30.125 9.6855469 C 30.125 8.6383471 30.9528 7.8105473 32 7.8105469 z M 20.064453 17 L 43.929688 17 L 43.929688 34.998047 L 20.064453 34.998047 L 20.064453 17 z " id="path900" style="color:#000000;font-style:normal;font-variant:normal;font-weight:normal;font-stretch:normal;font-size:medium;line-height:normal;font-family:sans-serif;font-variant-ligatures:normal;font-variant-position:normal;font-variant-caps:normal;font-variant-numeric:normal;font-variant-alternates:normal;font-variant-east-asian:normal;font-feature-settings:normal;font-variation-settings:normal;text-indent:0;text-align:start;text-decoration:none;text-decoration-line:none;text-decoration-style:solid;text-decoration-color:#000000;letter-spacing:normal;word-spacing:normal;text-transform:none;writing-mode:lr-tb;direction:ltr;text-orientation:mixed;dominant-baseline:auto;baseline-shift:baseline;text-anchor:start;white-space:normal;shape-padding:0;shape-margin:0;inline-size:0;clip-rule:nonzero;display:inline;overflow:visible;visibility:visible;opacity:1;isolation:auto;mix-blend-mode:normal;color-interpolation:sRGB;color-interpolation-filters:linearRGB;solid-color:#000000;solid-opacity:1;vector-effect:none;fill:#000000;fill-opacity:1;fill-rule:evenodd;stroke:none;stroke-width:2;stroke-linecap:butt;stroke-linejoin:miter;stroke-miterlimit:4;stroke-dasharray:none;stroke-dashoffset:0;stroke-opacity:1;color-rendering:auto;image-rendering:auto;shape-rendering:auto;text-rendering:auto;enable-background:accumulate;stop-color:#000000;stop-opacity:1" transform="scale(0.26458333)"/></g></svg>