<?xml version="1.0" ?><svg height="64" id="svg8" version="1.1" viewBox="0 0 16.933333 16.933333" width="64" xmlns="http://www.w3.org/2000/svg" xmlns:cc="http://creativecommons.org/ns#" xmlns:dc="http://purl.org/dc/elements/1.1/" xmlns:inkscape="http://www.inkscape.org/namespaces/inkscape" xmlns:rdf="http://www.w3.org/1999/02/22-rdf-syntax-ns#" xmlns:sodipodi="http://sodipodi.sourceforge.net/DTD/sodipodi-0.dtd" xmlns:svg="http://www.w3.org/2000/svg"><defs id="defs2"/><g id="layer1"/><g id="g46" style="display:inline"><path d="M 30.996094 2.9960938 L 30.996094 19.083984 C 28.35093 19.501065 26.219212 21.533915 25.460938 24.175781 C 25.289826 24.771959 25.183225 25.402661 25.158203 26.050781 L 25.158203 26.146484 L 25.171875 26.242188 C 25.683507 29.558613 25.684184 33.606364 25.164062 37.794922 L 25.158203 37.876953 L 25.158203 37.957031 C 25.183688 38.604956 25.289446 39.236113 25.460938 39.832031 C 26.220398 42.471048 28.352809 44.501224 30.996094 44.917969 L 30.996094 60.996094 L 32.996094 60.996094 L 32.996094 44.917969 C 35.643023 44.504253 37.780085 42.473 38.541016 39.832031 C 38.713147 39.234768 38.818703 38.607424 38.84375 37.957031 L 38.84375 37.861328 L 38.828125 37.765625 C 38.316555 34.446358 38.315652 30.395588 38.835938 26.212891 L 38.84375 26.132812 L 38.84375 26.050781 C 38.818726 25.401688 38.712621 24.772847 38.541016 24.175781 C 37.781372 21.532159 35.644595 19.496327 32.996094 19.082031 L 32.996094 2.9960938 L 30.996094 2.9960938 z M 32 21.001953 C 34.153554 21.001953 35.988781 22.528013 36.621094 24.728516 C 36.646596 24.817244 36.660339 24.911456 36.681641 25.001953 L 27.318359 25.001953 C 27.33965 24.911391 27.353456 24.817188 27.378906 24.728516 C 28.010753 22.527131 29.845904 21.001953 32 21.001953 z M 27.283203 27.003906 L 36.751953 27.003906 C 36.681504 27.673835 36.607142 28.344257 36.5625 29.003906 L 27.466797 29.003906 C 27.423187 28.320138 27.360937 27.653069 27.283203 27.003906 z M 27.542969 30.996094 L 36.484375 30.996094 C 36.465578 31.668907 36.443426 32.343133 36.453125 32.996094 L 27.513672 32.996094 C 27.53183 32.323237 27.553328 31.648865 27.542969 30.996094 z M 27.4375 34.998047 L 36.527344 34.998047 C 36.570479 35.682061 36.631467 36.348564 36.708984 36.998047 L 27.248047 36.998047 C 27.318234 36.32828 27.393278 35.657229 27.4375 34.998047 z M 27.316406 38.998047 L 36.683594 38.998047 C 36.661865 39.091224 36.647296 39.188383 36.621094 39.279297 C 35.987674 41.477716 34.152268 43 32 43 C 29.847164 43 28.011835 41.478634 27.378906 39.279297 C 27.352739 39.188368 27.338134 39.091502 27.316406 38.998047 z " id="path909" style="color:#000000;font-style:normal;font-variant:normal;font-weight:normal;font-stretch:normal;font-size:medium;line-height:normal;font-family:sans-serif;font-variant-ligatures:normal;font-variant-position:normal;font-variant-caps:normal;font-variant-numeric:normal;font-variant-alternates:normal;font-variant-east-asian:normal;font-feature-settings:normal;font-variation-settings:normal;text-indent:0;text-align:start;text-decoration:none;text-decoration-line:none;text-decoration-style:solid;text-decoration-color:#000000;letter-spacing:normal;word-spacing:normal;text-transform:none;writing-mode:lr-tb;direction:ltr;text-orientation:mixed;dominant-baseline:auto;baseline-shift:baseline;text-anchor:start;white-space:normal;shape-padding:0;shape-margin:0;inline-size:0;clip-rule:nonzero;display:inline;overflow:visible;visibility:visible;opacity:1;isolation:auto;mix-blend-mode:normal;color-interpolation:sRGB;color-interpolation-filters:linearRGB;solid-color:#000000;solid-opacity:1;vector-effect:none;fill:#FFFFFF;fill-opacity:1;fill-rule:evenodd;stroke:none;stroke-width:1.99999;stroke-linecap:butt;stroke-linejoin:miter;stroke-miterlimit:4;stroke-dasharray:none;stroke-dashoffset:0;stroke-opacity:1;color-rendering:auto;image-rendering:auto;shape-rendering:auto;text-rendering:auto;enable-background:accumulate;stop-color:#FFFFFF;stop-opacity:1" transform="scale(0.26458333)"/></g></svg>