<?xml version="1.0" encoding="iso-8859-1"?>
<!-- Generator: Adobe Illustrator 19.0.0, SVG Export Plug-In . SVG Version: 6.00 Build 0)  -->
<svg version="1.1" id="Layer_1" xmlns="http://www.w3.org/2000/svg" xmlns:xlink="http://www.w3.org/1999/xlink" x="0px" y="0px"
	 viewBox="0 0 511.999 511.999" style="enable-background:new 0 0 511.999 511.999;" xml:space="preserve">
<g>
	<path style="fill:#0D96BC;" d="M291.148,222.534H156.474l2.284-5.546c17.346-42.131,53.812-73.412,98.091-84.146l6.811-1.651
		L291.148,222.534z"/>
	<path style="fill:#0D96BC;" d="M367.989,285.526h-77.02l1.635,3.97c12.415,30.155,38.516,52.545,70.209,60.228l4.875,1.182
		L367.989,285.526z"/>
	<path style="fill:#0D96BC;" d="M410.011,261.507l1.955,2.923c14.855,22.203,46.082,38.688,84.002,44.345l5.832,0.87l-9.977-11.512
		c-9.292-10.722-14.854-22.518-16.33-34.636l-0.243-1.99L410.011,261.507L410.011,261.507z"/>
	<path style="fill:#0D96BC;" d="M126.66,283.672l1.878,4.773c14.267,36.26,53.645,69.463,105.926,89.313l8.041,3.054l-10.64-19.508
		c-9.91-18.17-14.168-36.709-12.503-54.438l0.273-2.911L126.66,283.672z"/>
	<path style="fill:#0D96BC;" d="M410.011,261.507l1.955-6.455c14.855-49.031,46.082-85.436,84.002-97.928l5.832-1.922l-9.977,25.423
		c-9.292,23.678-14.854,49.727-16.33,76.488l-0.243,4.394H410.011z"/>
</g>
<path style="fill:#76CFE2;" d="M468.843,260.859c0,0-102.67,60.031-229.322,60.031c-213.092,0-229.322-60.031-229.322-60.031
	s16.23-60.032,229.322-60.032C366.171,200.827,468.843,260.859,468.843,260.859z"/>
<path d="M509.508,302.964l-9.977-11.511c-7.997-9.228-12.679-19.048-13.913-29.187l-0.134-1.096l0.193-3.494
	c1.425-25.84,6.687-50.51,15.639-73.324l9.977-25.423c1.444-3.679,0.632-7.863-2.084-10.734c-2.715-2.871-6.846-3.915-10.601-2.679
	l-5.833,1.922c-33.017,10.878-61.773,38.622-79.827,76.704c-2.535-0.96-5.137-1.925-7.804-2.889
	c-27.931-10.101-67.084-21.6-111.916-27.198l-19.803-65.803c-1.56-5.187-6.908-8.247-12.17-6.973l-6.81,1.651
	c-40.123,9.727-74.793,35.547-95.64,71.078C18.795,206.855,1.956,252.268,0.353,258.197c-0.471,1.743-0.471,3.58,0,5.323
	c1.525,5.641,16.843,47.023,138.909,62.096c21.051,25.372,53.335,47.155,91.581,61.677l8.041,3.054
	c1.18,0.448,2.405,0.664,3.619,0.664c2.89,0,5.714-1.23,7.689-3.495c2.805-3.217,3.311-7.841,1.268-11.587l-10.64-19.508
	c-4.611-8.455-7.864-16.949-9.732-25.364c2.779,0.021,5.585,0.034,8.432,0.034c22.432,0,44.092-1.879,64.442-4.894
	c15.099,16.601,34.522,28.126,56.449,33.442l4.875,1.181c0.795,0.192,1.6,0.287,2.401,0.287c2.256,0,4.475-0.749,6.288-2.168
	c2.456-1.924,3.897-4.865,3.911-7.984l0.192-41.507c9.875-2.992,18.95-6.046,27.067-8.98c7.353-2.659,14.199-5.312,20.518-7.886
	c17.954,13.029,42.148,22.306,68.803,26.282l5.832,0.87c0.505,0.076,1.008,0.111,1.507,0.111c3.68,0,7.126-1.995,8.937-5.289
	C512.794,310.815,512.302,306.19,509.508,302.964z M483.599,173.664l-1.27,3.235c-8.712,22.201-14.202,45.969-16.375,70.768
	c-7.111-3.723-18.731-9.472-34.028-15.931C444.556,205.588,462.697,185.285,483.599,173.664z M256.684,143.403l14.58,48.446
	c-10.364-0.783-20.963-1.221-31.742-1.221c-19.946,0-38.23,0.524-54.996,1.48C202.299,168.355,227.769,151.035,256.684,143.403z
	 M220.018,360.567c-18.952-8.913-35.701-19.755-49.365-31.87c12.29,0.921,25.459,1.6,39.579,1.995
	C211.951,340.672,215.221,350.673,220.018,360.567z M357.55,337.605c-10.478-3.511-20.119-8.845-28.609-15.774
	c10.022-2.015,19.62-4.258,28.712-6.627L357.55,337.605z M239.521,310.691c-35.663,0-65.575-1.699-90.685-4.483
	c-0.599-0.326-1.225-0.587-1.868-0.786c-2.935-3.174-5.059-6.984-6.203-11.208c-1.473-5.437-7.071-8.654-12.51-7.178
	c-5.437,1.472-8.651,7.074-7.179,12.511c0.276,1.02,0.592,2.023,0.931,3.013c-72.958-11.949-94.634-33.703-100.287-41.701
	c7.963-11.266,47.681-49.831,217.802-49.831c92.803,0,173.327,33.462,207.166,49.831
	C412.848,277.23,332.322,310.691,239.521,310.691z M448.213,282.774c8.122-3.77,14.486-7.001,18.863-9.315
	c1.865,7.072,4.903,14.019,9.07,20.637C465.945,291.179,456.52,287.357,448.213,282.774z"/>
<path d="M144.275,252.211c-4.384-3.536-10.805-2.852-14.343,1.532c-1.02,1.263-1.985,2.594-2.87,3.954
	c-3.073,4.721-1.736,11.039,2.985,14.112c1.718,1.118,3.646,1.651,5.553,1.651c3.335,0,6.604-1.634,8.558-4.638
	c0.509-0.781,1.063-1.544,1.648-2.269C149.344,262.171,148.658,255.749,144.275,252.211z"/>
<path d="M72.632,244.656c-6.286,0-11.4,5.115-11.4,11.401c0,6.286,5.114,11.4,11.4,11.4s11.4-5.114,11.4-11.4
	C84.032,249.77,78.918,244.656,72.632,244.656z"/>
<g>
</g>
<g>
</g>
<g>
</g>
<g>
</g>
<g>
</g>
<g>
</g>
<g>
</g>
<g>
</g>
<g>
</g>
<g>
</g>
<g>
</g>
<g>
</g>
<g>
</g>
<g>
</g>
<g>
</g>
</svg>
