<svg xmlns="http://www.w3.org/2000/svg" version="1.1" xmlns:xlink="http://www.w3.org/1999/xlink" xmlns:svgjs="http://svgjs.com/svgjs" width="500" height="1040" preserveAspectRatio="none" viewBox="0 0 500 1040"><g mask="url(&quot;#SvgjsMask1059&quot;)" fill="none"><rect width="500" height="1040" x="0" y="0" fill="#2350ef"></rect><path d="M0,351.293C65.869,349.607,125.975,317.838,180.27,280.506C233.274,244.061,272.456,194.465,307.001,140.203C346.423,78.28,396.428,16.599,395.008,-56.794C393.533,-132.995,354.462,-206.759,299.269,-259.318C246.304,-309.756,171.81,-328.425,99.347,-338.345C34.324,-347.247,-29.388,-332.963,-91.865,-312.865C-152.932,-293.22,-215.321,-271.454,-257.857,-223.435C-300.62,-175.159,-311.517,-109.587,-327.319,-47.061C-344.925,22.605,-383.075,95.99,-355.333,162.275C-327.513,228.746,-249.916,256.046,-186.299,289.887C-127.379,321.229,-66.716,353,0,351.293" fill="#214ce4"></path><path d="M500 1479.259C592.583 1489.6689999999999 701.405 1524.583 773.494 1465.565 846.544 1405.76 816.5609999999999 1287.496 844.4169999999999 1197.29 867.7239999999999 1121.815 940.271 1056.317 923.721 979.078 907.196 901.957 819.796 866.657 762.057 812.9259999999999 711.201 765.6 664.784 717.816 604.982 682.463 528.107 637.017 452.25 562.408 364.278 577.7719999999999 276.56 593.091 225.01 684.566 174.204 757.696 127.63 824.735 96.09300000000002 899.458 84.64100000000002 980.28 73.207 1060.979 77.48399999999998 1143.402 108.89600000000002 1218.6109999999999 140.96300000000002 1295.388 194.132 1362.062 263.369 1408.205 333.318 1454.8220000000001 416.467 1469.866 500 1479.259" fill="#214ce4"></path></g><defs><mask id="SvgjsMask1059"><rect width="500" height="1040" fill="#ffffff"></rect></mask></defs></svg>